# Blender v2.79 (sub 0) OBJ File: 'terminal.blend'
# www.blender.org
mtllib terminal.mtl
o CM_Terminal_Cube.001
v -1.004139 0.014952 1.012513
v -1.004139 4.045300 1.012513
v -1.004139 0.014952 -1.020808
v -1.004139 4.045300 -1.020808
v 1.012478 0.014952 1.012513
v 1.012478 4.045300 1.012513
v 1.012478 0.014952 -1.020808
v 1.012478 4.045300 -1.020808
vn -1.0000 0.0000 0.0000
vn 0.0000 0.0000 -1.0000
vn 1.0000 0.0000 0.0000
vn 0.0000 0.0000 1.0000
vn 0.0000 -1.0000 0.0000
vn 0.0000 1.0000 0.0000
usemtl None
s off
f 2//1 3//1 1//1
f 4//2 7//2 3//2
f 8//3 5//3 7//3
f 6//4 1//4 5//4
f 7//5 1//5 3//5
f 4//6 6//6 8//6
f 2//1 4//1 3//1
f 4//2 8//2 7//2
f 8//3 6//3 5//3
f 6//4 2//4 1//4
f 7//5 5//5 1//5
f 4//6 2//6 6//6
o Terminal_Cube
v 1.000000 0.000000 -1.000000
v 1.000000 0.000000 1.000000
v -1.000000 0.000000 1.000000
v -1.000000 0.000000 -1.000000
v 1.000000 4.000000 -0.999999
v 0.999999 4.000000 1.000001
v -1.000000 4.000000 1.000000
v -1.000000 4.000000 -1.000000
v 0.000000 0.000000 1.000000
v 1.000000 2.000000 1.000000
v -1.000000 2.000000 1.000000
v -0.000001 4.000000 1.000000
v -0.000000 2.000000 1.000000
v 1.000000 3.000000 1.000000
v -1.000000 3.000000 1.000000
v -0.500000 4.000000 1.000000
v 0.499999 4.000000 1.000000
v -0.500000 2.000000 1.000000
v 0.500000 2.000000 1.000000
v -0.000000 2.999112 0.641172
v 0.597760 3.000000 1.000000
v -0.597761 3.000000 1.000000
v 0.999999 3.500000 1.000000
v -1.000000 3.500000 1.000000
v -0.750000 4.000000 1.000000
v 0.249999 4.000000 1.000000
v -0.750000 2.000000 1.000000
v 0.250000 2.000000 1.000000
v -0.000000 2.543974 1.000000
v 1.000000 2.500000 1.000000
v -1.000000 2.500000 1.000000
v -0.250001 4.000000 1.000000
v 0.749999 4.000000 1.000000
v -0.250000 2.000000 1.000000
v 0.750000 2.000000 1.000000
v -0.000000 3.597760 1.000000
v 0.333460 2.999112 0.641172
v 0.750000 3.000000 1.000000
v 0.597760 2.543974 1.000000
v 0.597760 3.597760 1.000000
v -0.750000 3.000000 1.000000
v -0.333461 2.999112 0.641172
v -0.597761 2.543974 1.000000
v -0.597761 3.597760 1.000000
v -0.298881 3.597760 1.000000
v -0.298881 2.543974 1.000000
v -0.750000 2.500000 1.000000
v 0.749999 3.500000 1.000000
v 0.750000 2.500000 1.000000
v 0.298880 2.543974 1.000000
v 0.298880 3.597760 1.000000
v -0.750000 3.500000 1.000000
v -0.000000 3.369566 0.641172
v 0.166730 2.999112 0.641172
v 0.597760 3.353103 1.000000
v -0.500191 2.999112 0.641172
v -0.597761 3.353103 1.000000
v -0.000000 2.685545 0.641172
v 0.500190 2.999112 0.641172
v 0.597760 2.701120 1.000000
v -0.166731 2.999112 0.641172
v -0.597761 2.701120 1.000000
v -0.448321 3.597760 1.000000
v -0.149441 3.597760 1.000000
v -0.333461 3.369566 0.641172
v -0.448321 2.543974 1.000000
v -0.149440 2.543974 1.000000
v -0.333461 2.685545 0.641172
v 0.149440 2.543974 1.000000
v 0.448320 2.543974 1.000000
v 0.333460 2.685545 0.641172
v 0.149440 3.597760 1.000000
v 0.448320 3.597760 1.000000
v 0.333460 3.369566 0.641172
v 0.500190 3.369566 0.641172
v 0.166730 3.369566 0.641172
v 0.500190 2.685545 0.641172
v -0.166731 2.685545 0.641172
v -0.166731 3.369566 0.641172
v -0.500191 3.369566 0.641172
v -0.500191 2.685545 0.641172
v 0.166730 2.685545 0.641172
vn 0.0000 -1.0000 0.0000
vn 0.0000 1.0000 0.0000
vn 1.0000 0.0000 0.0000
vn -0.0000 -0.0000 1.0000
vn -1.0000 0.0000 -0.0000
vn 0.0000 0.0000 -1.0000
vn 0.9650 0.0000 0.2624
vn 0.8355 -0.5103 0.2038
vn 0.0000 -0.8438 0.5366
vn -0.9650 0.0000 0.2624
vn -0.8355 -0.5103 0.2038
vn -0.0000 0.9302 0.3670
vn -0.7147 0.6797 0.1648
vn 0.7147 0.6797 0.1648
usemtl Material
s off
f 10//7 17//7 9//7
f 40//8 20//8 16//8
f 13//9 38//9 18//9
f 33//10 32//10 60//10
f 23//11 32//11 16//11
f 9//12 16//12 13//12
f 26//10 35//10 11//10
f 27//10 36//10 17//10
f 20//10 44//10 80//10
f 62//10 66//10 90//10
f 46//10 68//10 57//10
f 41//10 48//10 56//10
f 49//10 39//10 55//10
f 64//13 70//13 89//13
f 24//10 52//10 71//10
f 71//14 65//14 88//14
f 87//15 53//15 73//15
f 40//10 53//10 72//10
f 54//10 74//10 42//10
f 37//10 75//10 21//10
f 69//10 76//10 86//10
f 55//10 19//10 35//10
f 26//10 55//10 35//10
f 70//10 49//10 55//10
f 56//10 63//10 46//10
f 31//10 46//10 22//10
f 14//10 56//10 31//10
f 57//10 27//10 43//10
f 38//10 43//10 18//10
f 22//10 57//10 38//10
f 58//10 77//10 36//10
f 47//10 78//10 27//10
f 67//10 79//10 85//10
f 80//15 61//15 84//15
f 81//15 82//15 83//15
f 34//10 59//10 81//10
f 60//10 23//10 49//10
f 65//10 60//10 49//10
f 52//10 33//10 60//10
f 83//10 45//10 67//10
f 63//16 67//16 29//16
f 63//17 81//17 83//17
f 84//10 28//10 62//10
f 82//10 62//10 45//10
f 59//15 84//15 82//15
f 78//18 79//18 58//18
f 68//10 78//10 47//10
f 68//16 67//16 85//16
f 86//18 54//18 75//18
f 66//18 75//18 37//18
f 28//10 86//10 66//10
f 87//10 50//10 69//10
f 61//10 69//10 28//10
f 61//15 72//15 87//15
f 64//13 65//13 30//13
f 73//10 64//10 50//10
f 73//15 71//15 88//15
f 74//10 70//10 51//10
f 76//18 74//18 54//18
f 50//10 89//10 76//10
f 77//18 66//18 37//18
f 58//18 90//18 77//18
f 45//10 90//10 79//10
f 12//7 9//7 17//7
f 17//7 11//7 12//7
f 14//8 13//8 41//8
f 16//8 15//8 33//8
f 33//8 24//8 16//8
f 20//8 34//8 13//8
f 24//8 40//8 16//8
f 13//8 25//8 41//8
f 34//8 25//8 13//8
f 13//8 16//8 20//8
f 10//9 9//9 18//9
f 13//9 14//9 31//9
f 31//9 22//9 13//9
f 18//9 9//9 13//9
f 22//9 38//9 13//9
f 33//10 15//10 32//10
f 12//11 11//11 19//11
f 19//11 39//11 16//11
f 32//11 15//11 16//11
f 39//11 23//11 16//11
f 16//11 12//11 19//11
f 9//12 12//12 16//12
f 11//10 17//10 26//10
f 42//10 26//10 17//10
f 17//10 21//10 42//10
f 35//10 19//10 11//10
f 17//10 10//10 27//10
f 43//10 27//10 10//10
f 10//10 18//10 43//10
f 36//10 21//10 17//10
f 80//10 59//10 34//10
f 34//10 20//10 80//10
f 62//10 28//10 66//10
f 47//10 57//10 68//10
f 46//10 29//10 68//10
f 41//10 25//10 48//10
f 49//10 23//10 39//10
f 64//13 30//13 70//13
f 71//10 53//10 40//10
f 40//10 24//10 71//10
f 71//10 52//10 65//10
f 87//15 72//15 53//15
f 72//10 44//10 20//10
f 20//10 40//10 72//10
f 26//10 42//10 74//10
f 74//10 51//10 26//10
f 42//10 21//10 75//10
f 75//10 54//10 42//10
f 69//10 50//10 76//10
f 55//10 39//10 19//10
f 26//10 51//10 55//10
f 55//10 51//10 70//10
f 70//10 30//10 49//10
f 29//10 46//10 63//10
f 56//10 48//10 63//10
f 31//10 56//10 46//10
f 14//10 41//10 56//10
f 57//10 47//10 27//10
f 38//10 57//10 43//10
f 22//10 46//10 57//10
f 21//10 36//10 77//10
f 77//10 37//10 21//10
f 36//10 27//10 78//10
f 78//10 58//10 36//10
f 67//10 45//10 79//10
f 80//15 44//15 61//15
f 81//15 59//15 82//15
f 81//10 48//10 25//10
f 25//10 34//10 81//10
f 60//10 32//10 23//10
f 49//10 30//10 65//10
f 65//10 52//10 60//10
f 52//10 24//10 33//10
f 83//10 82//10 45//10
f 63//16 83//16 67//16
f 63//10 48//10 81//10
f 84//10 61//10 28//10
f 82//10 84//10 62//10
f 59//15 80//15 84//15
f 78//18 85//18 79//18
f 68//19 85//19 78//19
f 68//16 29//16 67//16
f 86//18 76//18 54//18
f 66//18 86//18 75//18
f 28//10 69//10 86//10
f 87//10 73//10 50//10
f 61//10 87//10 69//10
f 61//15 44//15 72//15
f 64//13 88//13 65//13
f 73//10 88//10 64//10
f 73//15 53//15 71//15
f 74//20 89//20 70//20
f 76//18 89//18 74//18
f 50//10 64//10 89//10
f 77//18 90//18 66//18
f 58//18 79//18 90//18
f 45//10 62//10 90//10
