# Blender v2.79 (sub 0) OBJ File: 'ramp.blend'
# www.blender.org
mtllib ramp.mtl
o Cube
v 2.145681 0.037176 -7.852228
v 2.145681 0.037176 7.852229
v -2.145682 0.037176 7.852227
v -2.145681 0.037176 -7.852232
v 2.145680 2.797269 7.852233
v -2.145682 2.797269 7.852226
vn 0.0000 -1.0000 0.0000
vn 1.0000 0.0000 0.0000
vn -0.0000 -0.0000 1.0000
vn -1.0000 -0.0000 -0.0000
vn 0.0000 0.9849 -0.1731
usemtl Material
s off
f 1//1 2//1 3//1 4//1
f 1//2 5//2 2//2
f 2//3 5//3 6//3 3//3
f 3//4 6//4 4//4
f 1//5 4//5 6//5 5//5
